<svg width="20" height="21" viewBox="0 0 20 21" fill="none" xmlns="http://www.w3.org/2000/svg">
<g id="logos:facebook" clip-path="url(#clip0_7_44)">
<path id="Vector" d="M20 10.5C20 4.70105 15.5228 0 10 0C4.47719 0 0 4.70096 0 10.5C0 15.7408 3.65687 20.0848 8.4375 20.8724V13.5352H5.89844V10.5H8.4375V8.18672C8.4375 5.55516 9.93047 4.10156 12.2146 4.10156C13.3088 4.10156 14.4531 4.30664 14.4531 4.30664V6.89062H13.1922C11.9498 6.89062 11.5625 7.70003 11.5625 8.53043V10.5H14.3359L13.8926 13.5352H11.5625V20.8724C16.3431 20.0848 20 15.7409 20 10.5Z" fill="#1877F2"/>
<path id="Vector_2" d="M13.8926 13.5352L14.3359 10.5H11.5625V8.53043C11.5625 7.69995 11.9499 6.89062 13.1922 6.89062H14.4531V4.30664C14.4531 4.30664 13.3088 4.10156 12.2146 4.10156C9.93047 4.10156 8.4375 5.55516 8.4375 8.18672V10.5H5.89844V13.5352H8.4375V20.8724C8.95439 20.9575 9.4768 21.0001 10 21C10.5232 21.0002 11.0456 20.9575 11.5625 20.8724V13.5352H13.8926Z" fill="white"/>
</g>
<defs>
<clipPath id="clip0_7_44">
<rect width="20" height="21" fill="white"/>
</clipPath>
</defs>
</svg>
